<?xml version="1.0" encoding="UTF-8"?>
<svg width="256" height="256" viewBox="0 0 256 256" fill="none" xmlns="http://www.w3.org/2000/svg">
  <defs>
    <linearGradient id="g" x1="0" y1="0" x2="1" y2="1">
      <stop offset="0%" stop-color="#180032" />
      <stop offset="100%" stop-color="#4A1D7A" />
    </linearGradient>
  </defs>
  <rect rx="48" width="256" height="256" fill="url(#g)"/>
  <g fill="#fff">
    <path d="M61 148c0-22 19-35 48-35h22c12 0 18-5 18-13 0-9-8-15-22-15-12 0-23 4-34 12l-18-25c15-13 36-20 59-20 37 0 61 17 61 47 0 29-21 46-56 46h-20c-12 0-18 5-18 13v2h94v30H61v-32z"/>
  </g>
</svg>

